<?xml version="1.0" encoding="UTF-8" standalone="no"?>
<!-- Generator: Adobe Illustrator 16.0.0, SVG Export Plug-In . SVG Version: 6.00 Build 0)  -->

<svg
   xmlns:dc="http://purl.org/dc/elements/1.1/"
   xmlns:cc="http://creativecommons.org/ns#"
   xmlns:rdf="http://www.w3.org/1999/02/22-rdf-syntax-ns#"
   xmlns:svg="http://www.w3.org/2000/svg"
   xmlns="http://www.w3.org/2000/svg"
   xmlns:sodipodi="http://sodipodi.sourceforge.net/DTD/sodipodi-0.dtd"
   xmlns:inkscape="http://www.inkscape.org/namespaces/inkscape"
   version="1.1"
   id="Layer_1"
   x="0px"
   y="0px"
   width="250px"
   height="250px"
   viewBox="0 0 250 250"
   enable-background="new 0 0 250 250"
   xml:space="preserve"
   inkscape:version="0.48.4 r9939"
   sodipodi:docname="Game&amp;WatchSymbol.svg"><metadata
     id="metadata15"><rdf:RDF><cc:Work
         rdf:about=""><dc:format>image/svg+xml</dc:format><dc:type
           rdf:resource="http://purl.org/dc/dcmitype/StillImage" /><dc:title></dc:title></cc:Work></rdf:RDF></metadata><defs
     id="defs13" /><sodipodi:namedview
     pagecolor="#ffffff"
     bordercolor="#666666"
     borderopacity="1"
     objecttolerance="10"
     gridtolerance="10"
     guidetolerance="10"
     inkscape:pageopacity="0"
     inkscape:pageshadow="2"
     inkscape:window-width="1161"
     inkscape:window-height="739"
     id="namedview11"
     showgrid="false"
     inkscape:zoom="0.944"
     inkscape:cx="125"
     inkscape:cy="125"
     inkscape:window-x="65"
     inkscape:window-y="24"
     inkscape:window-maximized="0"
     inkscape:current-layer="Layer_1" /><path
     opacity="0.5"
     fill-rule="evenodd"
     clip-rule="evenodd"
     d="M209.211,188.863c-2.748-0.021-5.138-0.838-7.548-1.659  c-3.477-1.186-6.581-3.021-9.349-5.368c-1.703-1.446-3.127-3.224-4.671-4.857c-3.435-3.631-5.213-8.208-7.151-12.676  c-2.49-5.743-4.071-11.764-5.143-17.922c-0.519-2.975-1.019-5.953-1.549-9.055c-2.344,0.4-4.666,0.867-7.01,1.181  c-4.828,0.646-9.666,1.237-14.508,1.78c-0.876,0.099-1.795-0.107-2.686-0.229c-1.084-0.148-1.849-0.656-1.89-1.885  c-0.042-1.291,0.44-1.938,1.792-2.25c2.598-0.6,5.222-1.096,7.795-1.781c3.215-0.855,6.474-1.682,8.811-4.353  c1.889-2.159,2.719-4.619,2.176-7.472c-0.328-1.725-0.537-3.499-1.092-5.152c-1.75-5.197-5.273-7.48-10.473-6.941  c-2.418,0.25-4.579,1.293-6.66,2.439c-4.563,2.512-8.425,5.802-11.244,10.263c-0.947,1.499-1.744,3.207-3.551,3.978  c-1.971,0.844-4.043,1.073-5.737-0.3c-1.753-1.421-2.599-3.474-2.312-5.824c0.04-0.331,0.26-0.679,0.486-0.939  c0.668-0.771,0.621-1.186-0.398-1.439c-1.749-0.437-3.544-0.682-5.292-1.121c-1.897-0.476-3.847-0.885-5.624-1.665  c-3.884-1.706-5.621-4.928-5.567-9.074c0.037-2.859,0.763-5.599,2.112-8.146c1.336-2.522,3.92-3.605,6.732-3.17  c2.829,0.437,5.365,1.461,7.726,3.021c0.329,0.218,0.711,0.356,1.203,0.598c0.11-1.574,0.201-3.027,0.317-4.479  c0.127-1.552,0.25-3.104,0.428-4.652c0.115-0.992-0.182-1.411-1.24-1.663c-3.984-0.948-7.94-2.022-11.89-3.108  c-0.813-0.224-1.546-0.729-2.334-1.059c-2.452-1.029-1.954-4.654,0.032-5.929c0.319-0.205,0.781-0.265,1.176-0.257  c5.061,0.09,10.123,0.177,15.183,0.325c2.07,0.06,2.046,0.115,2.969-1.75c1.906-3.847,4.618-6.997,7.986-9.68  c3.801-3.028,8.146-4.708,12.811-5.637c3.897-0.777,7.828-1.293,11.834-0.623c1.977,0.332,4,0.374,5.997,0.596  c3.455,0.384,6.706,1.493,9.919,2.778c3.533,1.413,6.635,3.566,9.369,6.076c3.316,3.044,6.205,6.545,7.83,10.894  c0.674,1.805,1.65,3.506,2.221,5.338c0.822,2.646,1.496,5.348,2.059,8.062c0.854,4.119,1.311,8.335,0.742,12.492  c-0.609,4.466-0.799,9.097-3.374,13.106c-1.747,2.723-3.835,5.115-6.286,7.208c-3.488,2.979-7.346,5.366-11.524,7.248  c-0.144,0.064-0.259,0.19-0.422,0.314c2.53,4.482,5.692,8.211,10.677,10.078c2.411,0.902,4.821,1.693,7.424,1.365  c3.516-0.444,6.345-2.113,8.451-4.981c0.188-0.256,0.414-0.484,0.78-0.91C209.553,156.375,209.383,172.524,209.211,188.863z"
     id="path3" /><path
     clip-rule="evenodd"
     d="m 82.070564,75.376489 c 2.454,3.718 4.791,7.346 7.219,10.913 2.902,4.263 5.586,8.65 6.666,13.757001 1.241,5.87 -0.432,10.775 -5.081,14.748 -2.431,2.078 -5.022,3.697 -8.097,4.477 -3.267,0.829 -6.395,0.328 -9.413,-1.173 -4.693,-2.333 -8.212,-5.939 -11.192,-10.144 -2.734,-3.857 -5.443,-7.732 -8.156,-11.605001 -0.941,-1.346 -0.928,-1.35 -2.342,-0.428 -0.516,0.334 -1.01,0.764 -1.58,0.938 -1.294,0.395 -2.634,-0.344 -3.221,-1.644 -0.666,-1.474 -0.335,-2.782 0.885,-3.611 7.168,-4.867 14.328,-9.746 21.5,-14.608 3.975,-2.694 7.966,-5.368 11.954,-8.044 1.06,-0.712 2.653,-0.286 3.537,0.922 0.763,1.041 0.64,2.876 -0.255,3.617 -0.381,0.314 -0.792,0.59 -1.182,0.893 -0.387,0.298 -0.766,0.61 -1.242,0.992 z"
     id="path5"
     inkscape:connector-curvature="0"
     inkscape:transform-center-x="32.838983"
     inkscape:transform-center-y="-37.801902"
     style="opacity:0.5;fill-rule:evenodd" /><path
     opacity="0.5"
     fill-rule="evenodd"
     clip-rule="evenodd"
     d="M109.841,146.033c-2.192,1.508-4.16,0.836-4.816-1.736  c-0.353-1.387-0.264-2.885-0.358-4.335c-0.029-0.447-0.004-0.897-0.004-1.554c-1.755,1.148-3.538,1.926-5.5,1.646  c-1.772-0.253-3.556-0.646-5.238-1.245c-1.519-0.541-2.115-1.949-2.326-3.507c-0.295-2.183,0.364-4.175,1.389-6.009  c1.604-2.875,3.715-5.302,6.789-6.737c3.351-1.564,6.8-2.077,10.389-0.993c2.599,0.785,3.929,2.626,4.167,6.575  c0.177,2.947-0.058,5.919,0.049,8.874c0.147,4.039,0.916,7.915,3.868,10.977c2.048,2.124,4.451,3.772,7.206,4.827  c5.27,2.019,10.734,2.992,16.392,2.924c2.38-0.029,4.765,0.218,7.144,0.184c4.574-0.065,9.021-1.008,13.03-3.17  c2.711-1.463,5.075-3.568,7.632-5.412c0.531,1.81,1.162,3.893,1.758,5.984c1.204,4.221,2.367,8.455,3.607,12.666  c0.253,0.859,0.114,1.393-0.62,1.883c-2.196,1.471-4.646,2.316-7.228,2.598c-2.846,0.311-5.741,0.609-8.584,0.428  c-4.771-0.305-9.604-0.332-14.234-1.842c-1.01-0.328-2.061-0.553-3.109-0.73c-5.727-0.965-10.553-4.084-15.522-6.73  c-2.467-1.315-4.352-3.697-6.564-5.518c-3.261-2.685-6.017-5.817-8.472-9.236C110.474,146.552,110.16,146.334,109.841,146.033z"
     id="path7" /><path
     clip-rule="evenodd"
     d="m 64.188564,78.551489 c -1.054,0.732 -2.017,1.401 -3.033,2.107 -0.287,-0.399 -0.521,-0.678 -0.705,-0.987 -0.788,-1.323 -1.632,-2.296 -3.481,-2.207 -2.039,0.1 -3.055,-1.994 -3.582,-3.836 -0.496,-1.736 0.229,-3.398 1.684,-4.416 2.751,-1.923 5.228,-1.67 7.127,0.774 0.832,1.071 1.047,2.342 0.607,3.602 -0.447,1.283 -0.247,2.366 0.517,3.432 0.305,0.429 0.525,0.92 0.866,1.531 z"
     id="path9"
     inkscape:connector-curvature="0"
     inkscape:transform-center-x="45.572226"
     inkscape:transform-center-y="-57.641173"
     style="opacity:0.5;fill-rule:evenodd" /></svg>